<svg width="27" height="27" viewBox="0 0 27 27" fill="none" xmlns="http://www.w3.org/2000/svg">
<path fill-rule="evenodd" clip-rule="evenodd" d="M13.5 7.875C14.742 7.875 15.75 6.867 15.75 5.625C15.75 4.383 14.742 3.375 13.5 3.375C12.258 3.375 11.25 4.383 11.25 5.625C11.25 6.867 12.258 7.875 13.5 7.875ZM13.5 11.25C12.258 11.25 11.25 12.258 11.25 13.5C11.25 14.742 12.258 15.75 13.5 15.75C14.742 15.75 15.75 14.742 15.75 13.5C15.75 12.258 14.742 11.25 13.5 11.25ZM11.25 21.375C11.25 20.133 12.258 19.125 13.5 19.125C14.742 19.125 15.75 20.133 15.75 21.375C15.75 22.617 14.742 23.625 13.5 23.625C12.258 23.625 11.25 22.617 11.25 21.375Z" fill="#8E8E96"/>
<mask id="mask0" mask-type="alpha" maskUnits="userSpaceOnUse" x="11" y="3" width="5" height="21">
<path fill-rule="evenodd" clip-rule="evenodd" d="M13.5 7.875C14.742 7.875 15.75 6.867 15.75 5.625C15.75 4.383 14.742 3.375 13.5 3.375C12.258 3.375 11.25 4.383 11.25 5.625C11.25 6.867 12.258 7.875 13.5 7.875ZM13.5 11.25C12.258 11.25 11.25 12.258 11.25 13.5C11.25 14.742 12.258 15.75 13.5 15.75C14.742 15.75 15.75 14.742 15.75 13.5C15.75 12.258 14.742 11.25 13.5 11.25ZM11.25 21.375C11.25 20.133 12.258 19.125 13.5 19.125C14.742 19.125 15.75 20.133 15.75 21.375C15.75 22.617 14.742 23.625 13.5 23.625C12.258 23.625 11.25 22.617 11.25 21.375Z" fill="white"/>
</mask>
<g mask="url(#mask0)">
<rect width="27" height="27" fill="#8E8E96"/>
</g>
</svg>
