<svg width="42" height="42" viewBox="0 0 42 42" fill="none" xmlns="http://www.w3.org/2000/svg">
<path d="M26.25 5.25V12.25C26.25 12.7141 26.4344 13.1592 26.7626 13.4874C27.0908 13.8156 27.5359 14 28 14H35" stroke="#0061FD" stroke-width="2" stroke-linecap="round" stroke-linejoin="round"/>
<path d="M31.5 29.75H19.25C18.3217 29.75 17.4315 29.3813 16.7751 28.7249C16.1187 28.0685 15.75 27.1783 15.75 26.25V8.75C15.75 7.82174 16.1187 6.9315 16.7751 6.27513C17.4315 5.61875 18.3217 5.25 19.25 5.25H26.25L35 14V26.25C35 27.1783 34.6313 28.0685 33.9749 28.7249C33.3185 29.3813 32.4283 29.75 31.5 29.75Z" stroke="#0061FD" stroke-width="2" stroke-linecap="round" stroke-linejoin="round"/>
<path d="M28 29.75V33.25C28 34.1783 27.6313 35.0685 26.9749 35.7249C26.3185 36.3813 25.4283 36.75 24.5 36.75H12.25C11.3217 36.75 10.4315 36.3813 9.77513 35.7249C9.11875 35.0685 8.75 34.1783 8.75 33.25V15.75C8.75 14.8217 9.11875 13.9315 9.77513 13.2751C10.4315 12.6187 11.3217 12.25 12.25 12.25H15.75" stroke="#0061FD" stroke-width="2" stroke-linecap="round" stroke-linejoin="round"/>
</svg>
