<svg width="40" height="40" viewBox="0 0 40 40" fill="none" xmlns="http://www.w3.org/2000/svg">
<rect width="40" height="40" rx="12" fill="#EFEFF0"/>
<g clip-path="url(#clip0)">
<path d="M13.266 17.765C13.7339 16.3494 14.6369 15.1178 15.8461 14.2458C17.0554 13.3738 18.5091 12.9059 20 12.909C21.69 12.909 23.218 13.509 24.418 14.491L27.91 11C25.782 9.145 23.055 8 20 8C15.27 8 11.198 10.698 9.23999 14.65L13.266 17.765Z" fill="#EA4335"/>
<path d="M24.0401 26.0131C22.9501 26.7161 21.5661 27.0911 20.0001 27.0911C18.5151 27.0941 17.0669 26.63 15.8603 25.7644C14.6537 24.8988 13.75 23.6757 13.2771 22.2681L9.23706 25.3351C10.2283 27.3414 11.7623 29.0295 13.6649 30.2076C15.5674 31.3858 17.7623 32.0068 20.0001 32.0001C22.9331 32.0001 25.7351 30.9571 27.8341 29.0001L24.0411 26.0131H24.0401Z" fill="#34A853"/>
<path d="M27.834 29.0001C30.029 26.9521 31.454 23.9041 31.454 20.0001C31.454 19.2901 31.345 18.5271 31.182 17.8181H20V22.4551H26.436C26.119 24.0141 25.266 25.2211 24.041 26.0131L27.834 29.0001Z" fill="#4A90E2"/>
<path d="M13.2771 22.2679C13.0325 21.5368 12.9082 20.7708 12.9091 19.9999C12.9091 19.2179 13.0341 18.4669 13.2661 17.7649L9.24012 14.6499C8.41649 16.3126 7.99192 18.1444 8.00012 19.9999C8.00012 21.9199 8.44512 23.7299 9.23712 25.3349L13.2771 22.2679Z" fill="#FBBC05"/>
</g>
<defs>
<clipPath id="clip0">
<rect width="24" height="24" fill="white" transform="translate(8 8)"/>
</clipPath>
</defs>
</svg>
