<svg width="40" height="40" viewBox="0 0 40 40" fill="none" xmlns="http://www.w3.org/2000/svg">
<rect width="40" height="40" rx="12" fill="#FFDC83"/>
<g clip-path="url(#clip0)">
<path d="M20 9.75C22.025 9.75 23.898 10.1438 25.6188 10.9313C27.3396 11.7188 28.7 12.7896 29.7 14.1438C30.7 15.4979 31.2 16.975 31.2 18.575C31.2 20.175 30.7 21.6542 29.7 23.0125C28.7 24.3708 27.3417 25.4438 25.625 26.2313C23.9084 27.0188 22.0334 27.4125 20 27.4125C19.3584 27.4125 18.6959 27.3667 18.0125 27.275C15.0459 29.3333 13.4667 30.375 13.275 30.4C13.1834 30.4333 13.0959 30.4292 13.0125 30.3875C12.9792 30.3625 12.9542 30.3292 12.9375 30.2875C12.9209 30.2458 12.9125 30.2083 12.9125 30.175V30.125C12.9625 29.8 13.3417 28.4458 14.05 26.0625C12.4417 25.2625 11.1646 24.2021 10.2188 22.8813C9.27297 21.5604 8.80005 20.125 8.80005 18.575C8.80005 16.975 9.30005 15.4979 10.3 14.1438C11.3 12.7896 12.6605 11.7188 14.3813 10.9313C16.1021 10.1438 17.975 9.75 20 9.75Z" fill="#372929"/>
</g>
<defs>
<clipPath id="clip0">
<rect width="22.4" height="20.8" fill="white" transform="translate(8.80005 9.6001)"/>
</clipPath>
</defs>
</svg>
