<svg width="24" height="24" viewBox="0 0 24 24" fill="none" xmlns="http://www.w3.org/2000/svg">
<path d="M20.702 5.52257L18.4434 3.2856C18.2493 3.10227 17.9914 3 17.7231 3C17.4549 3 17.197 3.10227 17.0029 3.2856L14.9946 5.28073H4.22082C3.89704 5.28073 3.58652 5.40813 3.35757 5.63489C3.12862 5.86166 3 6.16921 3 6.48991V19.7908C3 20.1115 3.12862 20.4191 3.35757 20.6458C3.58652 20.8726 3.89704 21 4.22082 21H17.6499C17.9737 21 18.2842 20.8726 18.5132 20.6458C18.7421 20.4191 18.8707 20.1115 18.8707 19.7908V8.76316L20.702 6.94939C20.8928 6.76009 21 6.5035 21 6.23598C21 5.96846 20.8928 5.71187 20.702 5.52257ZM12.0524 13.8235L9.49479 14.3858L10.1052 11.8768L15.9346 6.09088L17.9063 8.0437L12.0524 13.8235ZM18.5655 7.35447L16.5939 5.40165L17.7231 4.28316L19.6948 6.23598L18.5655 7.35447Z" fill="#95959B"/>
</svg>
