<svg width="24" height="24" viewBox="0 0 24 24" fill="none" xmlns="http://www.w3.org/2000/svg">
<path d="M7.75 21.5C7.75 21.5 6.5 21.5 6.5 20.25C6.5 19 7.75 15.25 14 15.25C20.25 15.25 21.5 19 21.5 20.25C21.5 21.5 20.25 21.5 20.25 21.5H7.75ZM14 14C14.9946 14 15.9484 13.6049 16.6517 12.9017C17.3549 12.1984 17.75 11.2446 17.75 10.25C17.75 9.25544 17.3549 8.30161 16.6517 7.59835C15.9484 6.89509 14.9946 6.5 14 6.5C13.0054 6.5 12.0516 6.89509 11.3483 7.59835C10.6451 8.30161 10.25 9.25544 10.25 10.25C10.25 11.2446 10.6451 12.1984 11.3483 12.9017C12.0516 13.6049 13.0054 14 14 14Z" fill="#9B9797"/>
</svg>
