<svg width="24" height="24" viewBox="0 0 24 24" fill="none" xmlns="http://www.w3.org/2000/svg">
<path d="M11.9999 2.3999C6.6979 2.3999 2.3999 6.6979 2.3999 11.9999C2.39997 13.2606 2.64834 14.5089 3.13085 15.6736C3.61336 16.8383 4.32054 17.8966 5.21203 18.788C6.10352 19.6794 7.16185 20.3865 8.3266 20.8688C9.49135 21.3512 10.7397 21.5995 12.0004 21.5994C13.2611 21.5993 14.5094 21.351 15.6741 20.8685C16.8388 20.386 17.8971 19.6788 18.7885 18.7873C19.6799 17.8958 20.387 16.8375 20.8693 15.6727C21.3517 14.508 21.6 13.2596 21.5999 11.9989C21.5999 6.6979 17.3009 2.3999 11.9999 2.3999ZM11.8489 17.5989H11.7979C11.0159 17.5759 10.4639 16.9989 10.4869 16.2279C10.5089 15.4699 11.0739 14.9189 11.8299 14.9189L11.8759 14.9209C12.6799 14.9439 13.2259 15.5149 13.2029 16.3079C13.1799 17.0679 12.6249 17.5989 11.8489 17.5989ZM15.1399 11.0679C14.9559 11.3279 14.5519 11.6539 14.0419 12.0509L13.4799 12.4379C13.1719 12.6779 12.9859 12.9049 12.9169 13.1259C12.8609 13.2999 12.8349 13.3469 12.8299 13.7019V13.7919H10.6849L10.6909 13.6099C10.7179 12.8659 10.7359 12.4259 11.0449 12.0629C11.5299 11.4949 12.5999 10.8049 12.6449 10.7759C12.7917 10.6687 12.9198 10.5379 13.0239 10.3889C13.2489 10.0779 13.3479 9.8339 13.3479 9.5959C13.3479 9.2619 13.2499 8.9529 13.0549 8.6799C12.8669 8.4139 12.5099 8.2819 11.9939 8.2819C11.4819 8.2819 11.1309 8.4439 10.9219 8.7779C10.7059 9.1189 10.5969 9.4779 10.5969 9.8449V9.9369H8.3859L8.3899 9.8409C8.4469 8.4879 8.9309 7.5129 9.8249 6.9439C10.3879 6.5829 11.0889 6.3999 11.9059 6.3999C12.9739 6.3999 13.8779 6.6599 14.5879 7.1719C15.3089 7.6909 15.6739 8.4689 15.6739 9.4829C15.6729 10.0499 15.4939 10.5829 15.1399 11.0679Z" fill="#95959B"/>
</svg>
