<svg width="38" height="38" viewBox="0 0 38 38" fill="none" xmlns="http://www.w3.org/2000/svg">
<path d="M13.0895 23.2434C12.7982 23.2434 12.6018 23.2719 12.5005 23.3004V25.1656C12.6208 25.1941 12.7712 25.202 12.9787 25.202C13.7371 25.202 14.2042 24.8188 14.2042 24.1712C14.2042 23.5917 13.802 23.2434 13.0895 23.2434ZM18.6106 23.2624C18.2939 23.2624 18.0881 23.2909 17.9662 23.3194V27.4519C18.0881 27.4804 18.2844 27.4804 18.4617 27.4804C19.7553 27.4899 20.5977 26.7774 20.5977 25.2701C20.6072 23.9559 19.8392 23.2624 18.6106 23.2624Z" fill="black"/>
<path d="M22.1666 3.16675H9.49992C8.66007 3.16675 7.85461 3.50038 7.26075 4.09424C6.66688 4.68811 6.33325 5.49356 6.33325 6.33341V31.6667C6.33325 32.5066 6.66688 33.3121 7.26075 33.9059C7.85461 34.4998 8.66007 34.8334 9.49992 34.8334H28.4999C29.3398 34.8334 30.1452 34.4998 30.7391 33.9059C31.333 33.3121 31.6666 32.5066 31.6666 31.6667V12.6667L22.1666 3.16675ZM15.0384 25.6342C14.5492 26.0934 13.8272 26.2992 12.9864 26.2992C12.8234 26.301 12.6605 26.2915 12.4988 26.2707V28.5286H11.0833V22.2966C11.7221 22.2013 12.3675 22.1579 13.0133 22.1667C13.8953 22.1667 14.5223 22.3346 14.945 22.6718C15.3472 22.9917 15.6195 23.5157 15.6195 24.1332C15.6179 24.7539 15.4121 25.278 15.0384 25.6342ZM21.0662 27.7797C20.4012 28.3322 19.3894 28.5951 18.1528 28.5951C17.4118 28.5951 16.8877 28.5476 16.5315 28.5001V22.2982C17.1705 22.2049 17.8158 22.161 18.4616 22.1667C19.6602 22.1667 20.4392 22.3821 21.0472 22.8412C21.7042 23.3289 22.1159 24.1063 22.1159 25.2226C22.1159 26.4307 21.6742 27.2651 21.0662 27.7797ZM26.9166 23.3859H24.4909V24.8283H26.7582V25.9905H24.4909V28.5302H23.0564V22.2142H26.9166V23.3859ZM22.1666 14.2501H20.5832V6.33341L28.4999 14.2501H22.1666Z" fill="black"/>
</svg>
