<svg width="38" height="38" viewBox="0 0 38 38" fill="none" xmlns="http://www.w3.org/2000/svg">
<path d="M19 17.4165L23.75 22.1665M19 17.4165V33.2498V17.4165ZM19 17.4165L14.25 22.1665L19 17.4165Z" stroke="#0061FD" stroke-width="2" stroke-linecap="round" stroke-linejoin="round"/>
<path d="M7.97042 14.4351C6.47292 14.8119 5.16456 15.7226 4.29115 16.996C3.41775 18.2695 3.03942 19.818 3.22724 21.3507C3.41506 22.8834 4.15611 24.2948 5.31116 25.3197C6.4662 26.3446 7.95574 26.9124 9.49992 26.9165H11.0833" stroke="#0061FD" stroke-width="2" stroke-linecap="round" stroke-linejoin="round"/>
<path d="M25.064 11.3017C24.5228 9.15879 23.1871 7.3018 21.3275 6.1072C19.468 4.9126 17.2237 4.46977 15.0498 4.86848C12.8758 5.26718 10.9348 6.47759 9.62024 8.25433C8.30563 10.0311 7.7158 12.2412 7.97031 14.4367C7.97031 14.4367 8.21256 15.8332 8.70814 16.6249" stroke="#0061FD" stroke-width="2" stroke-linecap="round" stroke-linejoin="round"/>
<path d="M26.9166 26.9166C28.0345 26.9158 29.1395 26.6783 30.159 26.2197C31.1785 25.7611 32.0893 25.0917 32.8315 24.2558C33.5736 23.4198 34.1303 22.4361 34.4649 21.3694C34.7995 20.3028 34.9044 19.1774 34.7727 18.0672C34.641 16.9571 34.2757 15.8875 33.7008 14.9288C33.126 13.97 32.3545 13.1439 31.4374 12.5047C30.5202 11.8656 29.4781 11.428 28.3796 11.2206C27.2811 11.0133 26.1511 11.0409 25.0641 11.3018L22.9583 11.8749" stroke="#0061FD" stroke-width="2" stroke-linecap="round" stroke-linejoin="round"/>
</svg>
