<svg width="126" height="44" viewBox="0 0 126 44" fill="none" xmlns="http://www.w3.org/2000/svg">
<rect width="126" height="43.8769" rx="15" fill="#45454D" fill-opacity="0.8"/>
<path d="M77.2 19.738H74.824V25.318H73.096V13.132H74.824V18.298H77.2V19.738ZM66.778 18.118V21.268H72.16V22.33L69.82 22.708H61.594V21.268H65.032V18.118H66.778ZM75.184 29.242H64.168V24.4H65.914V27.802H75.184V29.242ZM69.082 19.738V15.31H62.854V13.87H70.828V17.308L70.396 19.738H69.082ZM91.6028 22.42H89.8568V13.132H91.6028V22.42ZM89.8568 27.892V24.832H83.0168V27.892H89.8568ZM81.2708 23.41H91.6028V29.314H81.2708V23.41ZM84.1688 13.672V15.364C84.1688 15.976 84.3008 16.54 84.5648 17.056C84.8408 17.572 85.2548 18.13 85.8068 18.73C86.1068 19.042 86.4188 19.36 86.7428 19.684C87.0788 19.996 87.4508 20.308 87.8588 20.62L86.8328 21.754C86.4008 21.43 86.0048 21.1 85.6448 20.764C85.2848 20.416 84.9488 20.074 84.6368 19.738C84.3488 19.426 84.0848 19.132 83.8448 18.856C83.6168 18.568 83.4428 18.322 83.3228 18.118C83.1548 18.358 82.9328 18.64 82.6568 18.964C82.3928 19.276 82.0868 19.606 81.7388 19.954C81.3908 20.302 81.0068 20.656 80.5868 21.016C80.1788 21.376 79.7588 21.712 79.3268 22.024L78.3008 20.836C78.7208 20.524 79.1108 20.212 79.4708 19.9C79.8428 19.576 80.2028 19.24 80.5508 18.892C80.8868 18.556 81.1688 18.244 81.3968 17.956C81.6368 17.668 81.8288 17.38 81.9728 17.092C82.1288 16.804 82.2368 16.516 82.2968 16.228C82.3688 15.928 82.4048 15.61 82.4048 15.274V13.672H84.1688Z" fill="white" fill-opacity="0.8"/>
<path d="M52.112 15.3808C51.7586 14.5625 51.249 13.8209 50.6117 13.1976C49.974 12.5725 49.2221 12.0757 48.3969 11.7342C47.5412 11.3788 46.6234 11.1969 45.6969 11.199C44.397 11.199 43.1287 11.555 42.0266 12.2273C41.7629 12.3882 41.5124 12.5648 41.2751 12.7573C41.0378 12.5648 40.7873 12.3882 40.5236 12.2273C39.4215 11.555 38.1532 11.199 36.8533 11.199C35.9173 11.199 35.0102 11.3783 34.1533 11.7342C33.3254 12.077 32.5792 12.5701 31.9385 13.1976C31.3004 13.8202 30.7906 14.562 30.4382 15.3808C30.0717 16.2325 29.8845 17.1369 29.8845 18.0676C29.8845 18.9457 30.0638 19.8606 30.4197 20.7914C30.7177 21.5692 31.1448 22.376 31.6906 23.1908C32.5555 24.4801 33.7446 25.8249 35.2212 27.1881C37.6681 29.4477 40.0912 31.0087 40.194 31.0719L40.8189 31.4727C41.0958 31.6494 41.4517 31.6494 41.7286 31.4727L42.3535 31.0719C42.4563 31.006 44.8768 29.4477 47.3264 27.1881C48.8029 25.8249 49.9921 24.4801 50.8569 23.1908C51.4027 22.376 51.8325 21.5692 52.1278 20.7914C52.4838 19.8606 52.6631 18.9457 52.6631 18.0676C52.6657 17.1369 52.4785 16.2325 52.112 15.3808Z" fill="#B9B8C0"/>
</svg>
