<svg width="27" height="28" viewBox="0 0 27 28" fill="none" xmlns="http://www.w3.org/2000/svg">
<path d="M24.3369 7.57468C23.9835 6.75634 23.4739 6.01476 22.8366 5.39147C22.1989 4.76632 21.447 4.26953 20.6218 3.92809C19.7661 3.57265 18.8483 3.39071 17.9218 3.39284C16.6219 3.39284 15.3536 3.7488 14.2515 4.42116C13.9878 4.582 13.7373 4.75866 13.5 4.95114C13.2627 4.75866 13.0122 4.582 12.7485 4.42116C11.6464 3.7488 10.3781 3.39284 9.07822 3.39284C8.14219 3.39284 7.23516 3.57214 6.37822 3.92809C5.55029 4.27087 4.8041 4.76393 4.16338 5.39147C3.52528 6.01406 3.01556 6.75581 2.66309 7.57468C2.29658 8.42634 2.10938 9.33073 2.10938 10.2615C2.10938 11.1395 2.28867 12.0545 2.64463 12.9852C2.94258 13.7631 3.36973 14.5699 3.91553 15.3846C4.78037 16.674 5.96953 18.0187 7.44609 19.3819C9.89297 21.6416 12.3161 23.2025 12.4189 23.2658L13.0438 23.6666C13.3207 23.8432 13.6767 23.8432 13.9535 23.6666L14.5784 23.2658C14.6813 23.1999 17.1018 21.6416 19.5513 19.3819C21.0278 18.0187 22.217 16.674 23.0818 15.3846C23.6276 14.5699 24.0574 13.7631 24.3527 12.9852C24.7087 12.0545 24.888 11.1395 24.888 10.2615C24.8906 9.33073 24.7034 8.42634 24.3369 7.57468Z" fill="#B9B8C0"/>
</svg>
